<?xml version="1.0" encoding="UTF-8"?>
<svg version="1.1" xmlns="http://www.w3.org/2000/svg" width="650" height="520">
<path d="M0 0 C214.5 0 429 0 650 0 C650 171.6 650 343.2 650 520 C435.5 520 221 520 0 520 C0 348.4 0 176.8 0 0 Z " fill="#FDFDFE" transform="translate(0,0)"/>
<path d="M0 0 C1.13695312 0.42796875 2.27390625 0.8559375 3.4453125 1.296875 C4.67507813 1.75707031 5.90484375 2.21726563 7.171875 2.69140625 C9.76550655 3.72587768 12.29389642 4.80105363 14.8203125 5.984375 C20.03849852 8.40710422 25.51819172 10.0532116 30.97973633 11.83129883 C35.61865755 13.35538468 40.07616819 15.01827996 44.4921875 17.11328125 C47.93789286 18.66125791 51.51496387 19.84664767 55.07421875 21.10546875 C57.5703125 22.046875 57.5703125 22.046875 60.6953125 23.671875 C63.24299902 24.89033377 65.15244598 25.44394101 67.8828125 25.984375 C71.89832375 26.79680016 75.2358414 28.16925732 78.92578125 29.9140625 C82.21894553 31.32472372 85.59780421 32.39937236 89.0078125 33.484375 C94.39983652 35.2073098 99.31449319 37.33417034 104.30859375 39.9921875 C107.26732796 41.37190811 110.17074405 41.92909247 113.36328125 42.52734375 C116.51687342 43.26969376 119.28500639 44.61335266 122.2109375 45.98046875 C128.36281632 48.76103649 134.82216462 50.80956626 141.23193359 52.90454102 C146.67620125 54.68567359 151.94872423 56.57754517 157.13671875 59.01953125 C160.36117546 60.38073849 163.67691231 61.42050865 167.0078125 62.484375 C172.39964075 64.20797033 177.31440764 66.33412481 182.30859375 68.9921875 C185.27214527 70.37415453 188.18141745 70.93067819 191.37890625 71.53125 C194.43718045 72.25084393 197.08690636 73.57174538 199.91796875 74.91015625 C203.25525395 76.34042133 206.67939563 77.43871115 210.1328125 78.546875 C225.94522294 83.70296828 225.94522294 83.70296828 229.5703125 90.046875 C230.16071423 93.66308562 229.99526534 95.3263028 228.1328125 98.484375 C224.16763411 100.9021667 220.87430656 100.08740104 216.5703125 99.046875 C203.75898594 95.23524065 203.75898594 95.23524065 199.43359375 92.88671875 C196.920619 91.75403621 195.29708312 91.63230329 192.5703125 92.046875 C182.25337796 100.64432045 176.29980037 117.14583038 174.5703125 130.046875 C172.68435235 152.89089931 181.30920988 174.17587756 193.5703125 193.046875 C194.72321273 194.37148378 195.88822631 195.6857451 197.0703125 196.984375 C202.22043697 203.66410048 199.93004297 213.2827317 198.984375 221.125 C198.39733788 225.62603164 197.70356374 230.1051629 196.96728516 234.58398438 C196.62131815 236.73042665 196.31281903 238.877159 196.01953125 241.03125 C189.00394257 286.27463819 160.16555737 330.88116408 123.4855957 357.8840332 C109.90549466 367.65289083 95.26739676 375.73554007 80.77877808 384.05479431 C74.70399536 387.54299007 68.63707278 391.044752 62.5703125 394.546875 C60.40368109 395.79693612 58.23701436 397.046936 56.0703125 398.296875 C54.9978125 398.915625 53.9253125 399.534375 52.8203125 400.171875 C49.5703125 402.046875 46.3203125 403.921875 43.0703125 405.796875 C41.45914551 406.72669189 41.45914551 406.72669189 39.81542969 407.67529297 C37.66573333 408.9151043 35.51535093 410.15372694 33.36425781 411.39111328 C28.29056716 414.31160542 23.22467287 417.24361925 18.18273926 420.21856689 C15.80442937 421.62087904 13.42215748 423.01638097 11.03955078 424.41137695 C9.36230521 425.3971934 7.69083369 426.39281297 6.01953125 427.38867188 C4.99988281 427.98486328 3.98023438 428.58105469 2.9296875 429.1953125 C2.03733398 429.72302246 1.14498047 430.25073242 0.22558594 430.79443359 C-3.97283043 432.77474584 -7.12133504 433.47592325 -11.5625 432.01953125 C-16.93320753 429.41952024 -22.11311897 426.42027221 -27.3046875 423.484375 C-28.98123413 422.5406604 -28.98123413 422.5406604 -30.69165039 421.57788086 C-37.44937767 417.76324673 -44.17119484 413.8946324 -50.84545898 409.93603516 C-57.15720516 406.19357274 -63.50932888 402.52286865 -69.8671875 398.859375 C-70.96643555 398.22572021 -72.06568359 397.59206543 -73.19824219 396.93920898 C-78.91434781 393.6453714 -84.63250134 390.35510889 -90.3515625 387.06640625 C-95.79468976 383.93527273 -101.23245333 380.79502896 -106.66552734 377.64648438 C-108.35158593 376.67076843 -110.03905672 375.69748088 -111.72900391 374.72851562 C-129.45205068 364.56213665 -145.00933779 352.5299901 -159.4296875 338.046875 C-160.82960937 336.64695312 -160.82960937 336.64695312 -162.2578125 335.21875 C-174.64088529 322.19655087 -184.27704209 306.98256027 -192.4296875 291.046875 C-192.78901367 290.35271484 -193.14833984 289.65855469 -193.51855469 288.94335938 C-202.96821272 270.49693015 -208.32933757 251.4866285 -211.4296875 231.046875 C-211.6153125 229.92152344 -211.8009375 228.79617188 -211.9921875 227.63671875 C-215.18478405 201.44032384 -215.18478405 201.44032384 -207.20263672 190.93139648 C-206.36302831 189.86077349 -205.51875885 188.7937898 -204.66992188 187.73046875 C-202.44787475 184.71408352 -200.82591364 181.4023064 -199.1796875 178.046875 C-198.68637939 177.04309814 -198.68637939 177.04309814 -198.18310547 176.01904297 C-188.3323279 155.47456053 -185.71468186 136.4558072 -192.23828125 114.30078125 C-194.78601293 107.2237488 -198.97026968 101.06296845 -203.4296875 95.046875 C-203.86152344 94.41652344 -204.29335937 93.78617187 -204.73828125 93.13671875 C-207.03537315 91.65660642 -208.7659059 91.99121977 -211.37841797 92.49560547 C-216.2209505 93.79701447 -220.84050997 95.74971337 -225.49023438 97.60742188 C-229.93432271 99.32324495 -233.57989216 100.63181215 -238.4296875 100.046875 C-240.8046875 98.546875 -240.8046875 98.546875 -242.4296875 96.046875 C-242.98718243 93.27077779 -243.15890471 90.79216333 -242.4296875 88.046875 C-238.9006668 83.35490925 -233.86548517 82.04122783 -228.5390625 80.1484375 C-227.07294525 79.6122731 -227.07294525 79.6122731 -225.57720947 79.0652771 C-222.44840668 77.92363644 -219.31430359 76.7974433 -216.1796875 75.671875 C-214.11680943 74.9229155 -212.0543052 74.17292548 -209.9921875 73.421875 C-207.0471713 72.34958391 -204.10178086 71.27858923 -201.15325928 70.2159729 C-194.26616912 67.73260962 -187.40909205 65.17253229 -180.55636597 62.59631348 C-173.97301511 60.12209878 -167.37848317 57.67794133 -160.78515625 55.23046875 C-159.32244543 54.68728353 -157.85974323 54.1440751 -156.39704895 53.60084534 C-152.5720538 52.18034842 -148.74694739 50.76015136 -144.92181396 49.34002686 C-141.15028511 47.93974976 -137.37885662 46.53920242 -133.60742188 45.13867188 C-127.59164767 42.90474866 -121.57586862 40.67083849 -115.56005859 38.43701172 C-114.81298582 38.15960333 -114.06591305 37.88219494 -113.29620171 37.59638023 C-108.63269574 35.86474452 -103.96905919 34.13346095 -99.30534267 32.40239239 C-96.17529475 31.24053716 -93.04532535 30.07847049 -89.91536903 28.91636848 C-88.4513835 28.37287045 -86.98736415 27.8294635 -85.52330589 27.28616142 C-77.36614093 24.25905479 -69.21383162 21.21949558 -61.06814861 18.16161919 C-55.56030575 16.09435544 -50.04714079 14.04176639 -44.53125 11.99609375 C-42.63279292 11.29106834 -40.73435594 10.58598881 -38.8359375 9.88085938 C-35.91523603 8.79626125 -32.9944046 7.7120182 -30.07324219 6.62866211 C-27.20469984 5.56465501 -24.33668067 4.49924829 -21.46875 3.43359375 C-20.58869293 3.10759689 -19.70863586 2.78160004 -18.8019104 2.44572449 C-17.99281219 2.14483414 -17.18371399 1.84394379 -16.35009766 1.53393555 C-15.63890778 1.27001511 -14.9277179 1.00609467 -14.19497681 0.73417664 C-9.10846607 -1.24621668 -5.44048027 -1.51193301 0 0 Z " fill="#116FB0" transform="translate(326.4296875,54.953125)"/>
<path d="M0 0 C0.77601563 0.19078125 1.55203125 0.3815625 2.3515625 0.578125 C10.23490852 2.90791111 17.915192 5.83745459 25.1875 9.6875 C27.69229141 10.85640266 29.63449965 11.40374048 32.3125 11.9375 C36.3946972 12.76211746 39.84901163 14.1561018 43.60546875 15.92578125 C46.25867926 17.11604698 48.94584687 18.09420302 51.6875 19.0625 C55.62744325 20.46336871 59.27381224 22.09550404 63 24 C67.08012089 25.75112485 71.08092665 27.07225721 75.4375 27.9375 C81.82530471 29.26598625 87.35737681 31.35737681 92 36 C77.81 36 63.62 36 49 36 C49 36.66 49 37.32 49 38 C49.86625 37.896875 50.7325 37.79375 51.625 37.6875 C55.11394844 38.01055078 57.10766101 38.68186464 59.74298096 41.01864624 C62.71392281 45.70154014 61.7111481 51.91004149 61.5859375 57.26953125 C61.57473835 58.67484218 61.56620155 60.08017663 61.56021118 61.48551941 C61.53736801 65.17358772 61.47848821 68.86022449 61.4119873 72.54772949 C61.35046463 76.3148258 61.32317515 80.08215484 61.29296875 83.84960938 C61.22873672 91.23372359 61.12641673 98.61666076 61 106 C57.99922964 104.5630921 55.93368254 103.16416019 53.609375 100.76953125 C52.98659668 100.13515137 52.36381836 99.50077148 51.72216797 98.84716797 C51.07135254 98.17572754 50.42053711 97.50428711 49.75 96.8125 C48.39511643 95.43433998 47.03836929 94.05800937 45.6796875 92.68359375 C45.07366699 92.06540771 44.46764648 91.44722168 43.84326172 90.81030273 C41.36034116 88.37177877 38.74606849 86.10913196 36.0859375 83.8671875 C32.49603368 80.65375299 29.16130385 77.18011017 25.7746582 73.75512695 C22.95227499 70.91311261 20.12407417 68.15002397 17.0625 65.5625 C12.49199341 61.69066957 8.36026185 57.38518871 4.15063477 53.13110352 C0.45262581 49.40911071 -3.31186817 45.84608981 -7.32421875 42.4609375 C-9.08269248 40.92790912 -10.69314804 39.3034524 -12.3125 37.625 C-14.78303969 34.82973082 -14.78303969 34.82973082 -18 34 C-17.85993027 34.55269562 -17.71986053 35.10539124 -17.57554626 35.67483521 C-15.39712165 45.63267718 -15.65237005 55.66526076 -15.62890625 65.8046875 C-15.61992673 67.81723085 -15.61080467 69.82977358 -15.60154724 71.84231567 C-15.58513849 76.03975033 -15.5773705 80.23710591 -15.57446289 84.43457031 C-15.56905008 89.81152959 -15.53121648 95.18774801 -15.48571873 100.56449699 C-15.45600039 104.71148418 -15.44874066 108.85829047 -15.44773674 113.00537491 C-15.44353348 114.98853112 -15.43109496 116.97168783 -15.41021919 118.95473862 C-15.38337908 121.72152836 -15.38810493 124.48656479 -15.40063477 127.25341797 C-15.38580048 128.0690773 -15.37096619 128.88473663 -15.35568237 129.72511292 C-15.41001929 133.93612574 -15.6654407 135.55951472 -18.29917908 139.02713013 C-21.7251175 141.52967691 -23.85181865 141.40668445 -28 141 C-28 141.66 -28 142.32 -28 143 C-12.82 143 2.36 143 18 143 C18 142.34 18 141.68 18 141 C16.948125 141.12375 15.89625 141.2475 14.8125 141.375 C11 141 11 141 8.29223633 138.86083984 C4.34607258 133.7246827 5.38952145 127.00216575 5.51171875 120.8515625 C5.5210546 119.47009566 5.52816707 118.08861217 5.53315735 116.7071228 C5.55216728 113.08666565 5.60121313 109.46722567 5.65667725 105.84716797 C5.70800141 102.14694984 5.73069926 98.44656591 5.75585938 94.74609375 C5.80934039 87.49693418 5.89457697 80.24861009 6 73 C9.87949716 74.79532109 12.26961294 77.10067055 15.25 80.1875 C18.36065978 83.37219862 21.47130814 86.49996666 24.875 89.375 C28.61543222 92.56129412 32.04803768 96.00879969 35.5 99.5 C38.91070059 102.94938163 42.2962151 106.36119923 46 109.5 C50.32261082 113.16322951 54.23793677 117.2122242 58.21826172 121.23779297 C61.67254425 124.71616814 65.20965432 128.00432288 68.953125 131.171875 C72.21861879 134.08838472 75.26513323 137.22381277 78.32080078 140.35791016 C80.89939941 143.02020488 80.89939941 143.02020488 84 145 C83.93005011 144.38835401 83.86010021 143.77670801 83.78803062 143.14652729 C83.15016221 137.24642634 82.83807955 131.43076669 82.80712891 125.4987793 C82.79895142 124.608022 82.79077393 123.71726471 82.78234863 122.79951477 C82.75780059 119.89108923 82.74107057 116.98271093 82.7265625 114.07421875 C82.72123882 113.07463449 82.71591515 112.07505024 82.71043015 111.04517555 C82.68384945 105.76799923 82.66441533 100.49084548 82.64990234 95.21362305 C82.63650106 90.85371209 82.60851378 86.49426227 82.56787109 82.13452148 C82.51864372 76.85152887 82.49379652 71.56895779 82.48667526 66.28574562 C82.47995927 64.27745757 82.4647282 62.26917911 82.44078445 60.26102257 C82.40923425 57.45825955 82.40907898 54.65714132 82.41650391 51.85424805 C82.40009857 51.02766693 82.38369324 50.20108582 82.36679077 49.34945679 C82.41311912 45.08043435 82.6255945 43.47675012 85.35458374 40.00178528 C90.12467893 36.39225642 95.19212366 36.54921995 101 37 C105.22445913 38.2499336 109.03670541 40.09783054 113 42 C114.94948558 42.73233293 116.90776302 43.44178391 118.875 44.125 C122.74928928 45.50511163 126.33491531 47.12673449 130 49 C134.08012089 50.75112485 138.08092665 52.07225721 142.4375 52.9375 C146.38470566 53.75508759 149.69599541 55.12851026 153.3203125 56.86328125 C155.50433727 57.78974074 157.60623592 58.53407821 159.8671875 59.23046875 C160.54765137 59.44147217 161.22811523 59.65247559 161.92919922 59.86987305 C163.29382122 60.28511584 164.66268739 60.68669377 166.03564453 61.07348633 C167.9375 61.65625 167.9375 61.65625 171 63 C172.02482413 65.34107775 172.17222455 66.50889626 171.32250977 68.93188477 C170.94924561 69.59502686 170.57598145 70.25816895 170.19140625 70.94140625 C169.77818115 71.68447021 169.36495605 72.42753418 168.93920898 73.19311523 C168.48489502 73.97501221 168.03058105 74.75690918 167.5625 75.5625 C167.10238525 76.36953369 166.64227051 77.17656738 166.16821289 78.00805664 C162.51147329 84.32712041 158.54411354 90.27976296 154 96 C153.28070313 96.91007812 152.56140625 97.82015625 151.8203125 98.7578125 C133.86060519 121.06762193 113.93141512 136.10478818 89.23095703 150.15869141 C84.93211807 152.60858134 80.64960938 155.08629969 76.36645508 157.56347656 C73.1028258 159.45031985 69.83694665 161.33320808 66.5703125 163.21484375 C61.12608137 166.35089551 55.68336311 169.48955761 50.24145508 172.62963867 C48.09034782 173.87085526 45.93914427 175.111905 43.7878418 176.3527832 C38.7541364 179.25627178 33.7209768 182.1606941 28.68978882 185.06854248 C26.91637392 186.09345403 25.14278354 187.11806123 23.36914062 188.14257812 C21.15004227 189.42452738 18.93126984 190.70704107 16.71289062 191.99023438 C14.72298216 193.13947953 12.72887569 194.28149681 10.72998047 195.41503906 C8.97322304 196.43497013 7.23985703 197.49690632 5.53955078 198.60839844 C1.65589079 201.06586498 -0.18946265 202.0627881 -4.8828125 201.69921875 C-10.23196266 199.81554808 -15.04871676 196.74129398 -19.875 193.8125 C-22.02035786 192.5356591 -24.16620814 191.25964527 -26.3125 189.984375 C-27.4159375 189.32501953 -28.519375 188.66566406 -29.65625 187.98632812 C-35.03236624 184.79268898 -40.45365129 181.67852417 -45.875 178.5625 C-48.05999511 177.30355771 -50.24489045 176.04444223 -52.4296875 174.78515625 C-54.05729004 173.84760498 -54.05729004 173.84760498 -55.71777344 172.89111328 C-58.98174327 171.01051894 -62.24494189 169.12859454 -65.5078125 167.24609375 C-66.5800708 166.62758545 -67.6523291 166.00907715 -68.75708008 165.37182617 C-70.91378625 164.12696686 -73.06987704 162.88104078 -75.2253418 161.6340332 C-80.76408252 158.43179835 -86.31411873 155.2523686 -91.88671875 152.109375 C-111.60991439 140.94803419 -128.01830151 129.03505976 -144 113 C-144.57363281 112.44957031 -145.14726562 111.89914062 -145.73828125 111.33203125 C-156.90398807 100.55421499 -165.77487874 87.5159321 -173.0625 73.875 C-173.45687256 73.14015381 -173.85124512 72.40530762 -174.25756836 71.64819336 C-177 66.38137336 -177 66.38137336 -177 63 C-176.12859375 62.69707031 -175.2571875 62.39414062 -174.359375 62.08203125 C-168.61342548 60.06099922 -162.91665204 58.0176947 -157.3125 55.625 C-150.72553216 52.82707358 -144.01974393 50.38833549 -137.296875 47.94140625 C-132.38885273 46.15133027 -127.49807216 44.31610399 -122.6075592 42.47891235 C-113.64161729 39.11188553 -104.66406115 35.77608735 -95.6875 32.4375 C-93.79971957 31.73519884 -91.91194294 31.03288749 -90.02416992 30.33056641 C-81.00922681 26.9769978 -71.99356367 23.62537491 -62.9765625 20.27734375 C-62.19213272 19.98607101 -61.40770294 19.69479828 -60.59950256 19.3946991 C-56.95606589 18.04190635 -53.31250111 16.68946046 -49.66870117 15.33764648 C-45.77830201 13.89399688 -41.88873798 12.44811833 -38 11 C-37.3083374 10.74245941 -36.6166748 10.48491882 -35.90405273 10.21957397 C-26.49442571 6.72571543 -26.49442571 6.72571543 -17.1484375 3.06640625 C-16.50519531 2.81052734 -15.86195313 2.55464844 -15.19921875 2.29101562 C-13.9399248 1.78810701 -12.68491409 1.27438566 -11.43359375 0.75195312 C-7.18170177 -0.91315386 -4.40548914 -1.15005172 0 0 Z " fill="#FBFCFD" transform="translate(322,270)"/>
<path d="M0 0 C0 60.72 0 121.44 0 184 C-4.78616247 185.79481093 -9.57143398 187.58282879 -14.37109375 189.33984375 C-15.52287109 189.76330078 -16.67464844 190.18675781 -17.86132812 190.62304688 C-20.24073748 191.49761951 -22.62094466 192.3700247 -25.00195312 193.24023438 C-32.19817413 195.88310787 -32.19817413 195.88310787 -39.22265625 198.94140625 C-43.51336536 200.90699625 -47.93051217 202.35611327 -52.41015625 203.8203125 C-61.85747826 206.90844874 -71.14573199 210.35038385 -80.4375 213.875 C-83.92651702 215.19290868 -87.41639653 216.50852687 -90.90625 217.82421875 C-91.80121689 218.16199844 -92.69618378 218.49977814 -93.61827087 218.84779358 C-100.35155863 221.38659136 -107.0952448 223.89649237 -113.84375 226.39453125 C-115.30349998 226.93533325 -115.30349998 226.93533325 -116.79273987 227.48706055 C-120.6037223 228.89874349 -124.41473169 230.31032265 -128.22775269 231.7164917 C-130.85982461 232.68733185 -133.49055767 233.66172626 -136.12109375 234.63671875 C-136.88824707 234.91844437 -137.65540039 235.20016998 -138.44580078 235.49043274 C-143.05118696 237.2014036 -147.53367715 239.09980982 -152.01139832 241.12055969 C-154.22352364 242.09885122 -156.4506351 242.94125756 -158.74609375 243.703125 C-159.52017578 243.9609375 -160.29425781 244.21875 -161.09179688 244.484375 C-161.86587891 244.73703125 -162.63996094 244.9896875 -163.4375 245.25 C-164.23865234 245.518125 -165.03980469 245.78625 -165.86523438 246.0625 C-171.732103 248 -171.732103 248 -174 248 C-177.29475189 240.51748667 -179.40127512 233.028599 -181.1875 225.0625 C-181.44724609 223.95970703 -181.70699219 222.85691406 -181.97460938 221.72070312 C-183.55254925 214.8095711 -184.52878992 208.06815121 -185 201 C-185.12503906 199.71351563 -185.25007813 198.42703125 -185.37890625 197.1015625 C-185.88403793 187.53630296 -183.54253484 182.44405108 -178.13769531 174.71728516 C-172.7458292 166.57857567 -168.89891325 157.2821415 -165.625 148.125 C-165.3863623 147.46016602 -165.14772461 146.79533203 -164.90185547 146.11035156 C-158.32923182 126.86297211 -158.35879939 104.30735413 -167.05566406 85.74707031 C-170.29330699 79.29675343 -173.58008619 72.89144149 -179 68 C-178.67 67.01 -178.34 66.02 -178 65 C-175.5116272 63.75984192 -175.5116272 63.75984192 -172.14306641 62.52661133 C-171.52834315 62.29794687 -170.9136199 62.06928242 -170.28026867 61.83368874 C-168.22457476 61.07213349 -166.16324638 60.32720239 -164.1015625 59.58203125 C-162.65072017 59.04814884 -161.20026193 58.51322161 -159.75016785 57.97731018 C-155.85459339 56.54072682 -151.9540505 55.11811043 -148.05249405 53.69786835 C-144.00411279 52.22132152 -139.96059248 50.73159288 -135.91674805 49.24267578 C-129.51376357 46.88648293 -123.10856414 44.53643047 -116.70166016 42.19091797 C-106.89434644 38.59945388 -97.10374122 34.96382693 -87.3192749 31.31060791 C-83.17881516 29.76525699 -79.03654931 28.22476182 -74.89453125 26.68359375 C-73.27814295 26.08190772 -71.66176934 25.48018221 -70.04541016 24.87841797 C-68.82123383 24.42266388 -68.82123383 24.42266388 -67.57232666 23.95770264 C-64.83385088 22.93814104 -62.09539154 21.91853528 -59.35693359 20.89892578 C-54.50533215 19.0925431 -49.65361783 17.28646382 -44.80184937 15.48052979 C-42.12276984 14.48320289 -39.44382665 13.48551049 -36.76489258 12.48779297 C-33.47561855 11.2628441 -30.18540268 10.04047441 -26.89453125 8.81982422 C-23.47162241 7.54972577 -20.05327728 6.26803473 -16.63671875 4.98095703 C-14.90367563 4.33227715 -13.17060369 3.68367427 -11.4375 3.03515625 C-10.63344727 2.72992538 -9.82939453 2.42469452 -9.00097656 2.11021423 C-3.33930844 0 -3.33930844 0 0 0 Z " fill="#0C6CAF" transform="translate(313,74)"/>
<path d="M0 0 C6.09515033 1.35447785 9.99633322 2.33889245 15.34765625 4.859375 C19.87226854 6.8051582 24.57077374 8.24241904 29.25390625 9.75390625 C33.2120412 11.07053299 37.10321818 12.51443882 41 14 C42.85958904 14.69734589 44.71917812 15.39469173 46.57885742 16.09179688 C47.90998801 16.59116115 49.2408628 17.09120761 50.5715332 17.59179688 C54.08789655 18.91359894 57.60734269 20.22502826 61.13671875 21.51171875 C67.54129417 23.85916661 73.7776338 26.29899433 79.9375 29.25 C84.27431729 31.31413252 88.19130466 32.65978267 92.8984375 33.515625 C96.00360919 34.23131513 98.73230637 35.57222489 101.60546875 36.92578125 C104.25867926 38.11604698 106.94584687 39.09420302 109.6875 40.0625 C112.65737877 41.11287321 115.32296412 42.16794134 118.125 43.625 C120.67268652 44.84345877 122.58213348 45.39706601 125.3125 45.9375 C129.33007342 46.75034238 132.66935843 48.1265956 136.36328125 49.8671875 C139.61576832 51.26455232 142.94664855 52.35318751 146.3125 53.4375 C152.02762385 55.28489902 157.5414872 57.4248945 163.05859375 59.796875 C167.94875657 61.79710096 172.96640054 63.40245691 178 65 C177.38527349 68.49133133 176.02309225 70.52383316 173.875 73.3125 C161.24558506 90.95729989 157.47881324 111.0456725 160.32519531 132.44482422 C161.17017001 137.09218503 162.49060358 141.52179076 164 146 C164.49113281 147.546875 164.49113281 147.546875 164.9921875 149.125 C169.08196424 160.8271349 175.02211622 173.1554098 182.3125 183.1796875 C189.08848808 194.50437127 182.16159489 216.75296923 179.1472168 228.75463867 C177.50554922 235.08413105 175.71259767 241.03859348 173 247 C167.44705349 246.15085727 162.97753962 245.21890764 158.1875 242.14453125 C154.43266629 240.17994861 150.36081734 239.01977994 146.3293457 237.75073242 C143.05738278 236.7154711 140.05964588 235.53644555 137 234 C135.613684 233.66601183 134.21629024 233.37558551 132.8125 233.125 C127.84636888 232.08463211 123.55969829 230.18037929 119 228 C113.0149934 225.18737395 107.00784826 222.92535853 100.69921875 220.9296875 C98 220 98 220 95.9140625 218.9375 C93.81968698 217.91168342 91.97977436 217.52401046 89.6875 217.125 C86.0126538 216.35915968 83.39005712 215.13660771 80.19140625 213.1328125 C76.58091728 211.26642783 72.69680586 210.16222105 68.83496094 208.93310547 C64.66115853 207.59159966 60.64986206 206.06468067 56.625 204.3125 C52.46215243 202.51807307 48.56443644 201.37257895 44.12890625 200.515625 C41.06151988 199.77269839 38.35274731 198.47052917 35.50390625 197.1328125 C31.52377599 195.33212954 27.42809672 193.84281932 23.34375 192.296875 C19.16462072 190.67599776 15.05483478 188.91131851 10.94921875 187.11328125 C7.39930896 185.77324908 3.68111821 184.92027955 0 184 C0 123.28 0 62.56 0 0 Z " fill="#0D6CAF" transform="translate(327,74)"/>
<path d="M0 0 C3.43969341 0.01842693 4.56946359 0.70330644 7.25 2.95703125 C8.64717208 4.40778806 10.04351388 5.85982758 11.40673828 7.3425293 C14.34428315 10.52715263 17.18197163 12.97769787 20.875 15.3125 C29.46307544 21.09241109 33.45636494 29.00514558 35.97265625 38.88671875 C37.7938045 49.6718422 38.16107944 62.02133014 32.5 71.75 C29.38504445 78.29140666 30.31309254 85.68876161 30.625 92.75 C31.25664063 92.06035156 31.88828125 91.37070312 32.5390625 90.66015625 C43.99714081 78.62422097 58.43090159 67.94426255 75.6875 67.4375 C79.0009561 67.48688087 80.3521547 67.58759208 83.25 69.3125 C85.20211574 72.77306882 85.15011256 74.81165583 84.625 78.75 C83.7265503 80.58017531 82.81583002 82.40607904 81.82421875 84.1875 C80.23886089 87.57510506 79.28024669 91.10369269 78.25 94.6875 C76.32292122 101.20928626 73.91608843 106.39767465 69.625 111.75 C68.51125 113.296875 68.51125 113.296875 67.375 114.875 C58.81086396 123.82841495 45.87594176 131.47887041 33.29296875 131.84765625 C32.14441406 131.83605469 30.99585938 131.82445312 29.8125 131.8125 C28.65105469 131.80347656 27.48960937 131.79445313 26.29296875 131.78515625 C24.97232422 131.76775391 24.97232422 131.76775391 23.625 131.75 C23.51285156 132.59304688 23.51285156 132.59304688 23.3984375 133.453125 C21.82896912 143.48541308 18.6460031 153.08023232 15.625 162.75 C16.66398438 162.27949219 17.70296875 161.80898438 18.7734375 161.32421875 C20.18214948 160.69499407 21.59101185 160.06610602 23 159.4375 C23.67933594 159.12876953 24.35867188 158.82003906 25.05859375 158.50195312 C34.73915747 154.20450662 43.18101088 152.25517107 53.8125 152.375 C54.85341797 152.36339844 55.89433594 152.35179687 56.96679688 152.33984375 C63.95269163 152.36645668 68.65776746 153.27047966 74.625 157 C75.625 158.75 75.625 158.75 75.75 162 C74.44895274 166.33682418 72.91237789 167.774344 69.65234375 170.734375 C67.31232744 173.06086521 65.5180042 175.54887119 63.625 178.25 C56.12765299 188.65824879 48.38187854 193.76497991 36.625 198.75 C35.635 198.75 34.645 198.75 33.625 198.75 C33.625 199.41 33.625 200.07 33.625 200.75 C29.11580859 202.02696734 24.78264154 201.94094118 20.125 201.9375 C19.23458008 201.93814453 18.34416016 201.93878906 17.42675781 201.93945312 C10.64013908 201.88529802 4.25781101 201.2599082 -2.375 199.75 C-3.01566406 200.71679688 -3.65632812 201.68359375 -4.31640625 202.6796875 C-9.24464576 210.10259765 -14.21341174 217.48617546 -19.375 224.75 C-18.1684375 224.316875 -18.1684375 224.316875 -16.9375 223.875 C-8.56404805 221.23075202 -0.85161619 220.36414254 7.9375 220.375 C8.93845703 220.37371094 9.93941406 220.37242187 10.97070312 220.37109375 C21.84143388 220.52916122 33.20177271 222.16198051 42.25 228.625 C44.18370848 231.61345856 44.26654299 233.25715482 43.625 236.75 C40.58831702 240.54585372 36.74723958 243.18903409 32.83984375 246.01953125 C30.39361184 247.93078475 28.23097244 250.02979431 26 252.1875 C20.33883619 257.382036 11.54456515 263.75 3.625 263.75 C3.625 264.41 3.625 265.07 3.625 265.75 C-12.15429675 268.02532649 -29.30076883 269.01351772 -43.375 260.4375 C-46.13454039 258.55284231 -46.13454039 258.55284231 -48.66796875 258.7890625 C-52.46028938 260.13525424 -54.88400121 262.66066945 -57.6875 265.4375 C-62.32275896 269.96011597 -67.11569539 273.96380924 -72.375 277.75 C-71.64087891 277.72905273 -70.90675781 277.70810547 -70.15039062 277.68652344 C-49.3519322 277.17209695 -33.00502214 277.9455504 -15.375 289.75 C-13.375 291.75 -13.375 291.75 -12.9375 295.125 C-13.375 298.75 -13.375 298.75 -15.25 300.8125 C-18.62228606 302.90331736 -22.00712829 304.9650954 -25.4296875 306.97265625 C-28.20555489 308.64774864 -30.91189719 310.39771863 -33.61865234 312.18066406 C-39.31478793 315.920999 -44.90164994 319.50540927 -51.375 321.75 C-52.32246094 322.08451172 -52.32246094 322.08451172 -53.2890625 322.42578125 C-64.02801752 325.47332254 -77.73923182 324.85130628 -88.375 321.75 C-89.20902344 321.50894531 -90.04304688 321.26789063 -90.90234375 321.01953125 C-97.00458716 319.12041284 -97.00458716 319.12041284 -99.375 316.75 C-100.426875 316.3375 -101.47875 315.925 -102.5625 315.5 C-106.32025018 314.00313686 -108.73207386 311.76254109 -111.50390625 308.859375 C-113.38938513 307.52276054 -113.38938513 307.52276054 -116.00390625 307.77734375 C-120.6100298 309.10634116 -124.56109928 311.2605805 -128.75 313.5625 C-130.3824003 314.4447735 -132.01520899 315.32629184 -133.6484375 316.20703125 C-134.43935791 316.63387207 -135.23027832 317.06071289 -136.04516602 317.50048828 C-138.27017895 318.69378349 -140.49614447 319.88214433 -142.73828125 321.04296875 C-143.34969971 321.36160889 -143.96111816 321.68024902 -144.59106445 322.00854492 C-147.65784742 323.2831884 -150.14078435 323.25732795 -153.375 322.75 C-155.95172219 320.58887817 -156.30765824 319.10167362 -156.9375 315.8125 C-156.27739725 312.21860725 -155.04555529 311.24177616 -152.24584961 309.03295898 C-148.83029942 306.69070187 -145.1144543 305.00848649 -141.375 303.25 C-102.20471777 284.24175156 -64.56635084 257.00016586 -37.375 222.75 C-36.74207031 221.99589844 -36.10914063 221.24179687 -35.45703125 220.46484375 C-5.17512068 184.06411413 12.76959006 137.14058277 14.375 89.875 C14.43913086 88.87082031 14.50326172 87.86664063 14.56933594 86.83203125 C14.62791778 82.60842363 14.64730996 79.87746636 11.73095703 76.66113281 C9.43134067 74.88547366 7.07407417 73.31046737 4.625 71.75 C-5.9255231 62.24502423 -11.81415517 50.13641487 -12.578125 35.98828125 C-12.72889518 23.3612786 -10.83592275 12.83582788 -4.375 1.75 C-3.375 0.75 -3.375 0.75 0 0 Z " fill="#106EB0" transform="translate(537.375,169.25)"/>
<path d="M0 0 C3.9375 0.6875 3.9375 0.6875 6.046875 2.8203125 C8.10210531 5.93712871 9.10742684 8.66565045 10.125 12.25 C10.44855469 13.36503906 10.77210937 14.48007813 11.10546875 15.62890625 C11.38003906 16.63824219 11.65460938 17.64757812 11.9375 18.6875 C12.11474609 19.33146729 12.29199219 19.97543457 12.47460938 20.63891602 C15.51480712 34.0937152 12.59588752 49.20421368 5.4375 60.75 C4.30542262 62.41981414 3.13906454 64.06696888 1.9375 65.6875 C1.32390625 66.55503906 0.7103125 67.42257813 0.078125 68.31640625 C-2.34962908 71.00554261 -4.57988801 71.98040154 -7.8125 73.5625 C-10.77092558 75.68356079 -12.69188224 77.26525833 -13.63037109 80.86669922 C-14.4284958 87.81675293 -13.77418945 94.75542012 -13.0625 101.6875 C-12.89210205 103.35353271 -12.89210205 103.35353271 -12.71826172 105.05322266 C-11.0142235 120.38077163 -7.87326336 135.04618612 -3.0625 149.6875 C-2.84980469 150.35023926 -2.63710937 151.01297852 -2.41796875 151.69580078 C4.05025139 171.67947122 14.15470365 191.0437774 26.9375 207.6875 C28.18936574 209.45701487 29.43931565 211.22788642 30.6875 213 C35.7123711 219.89938356 41.27967149 226.30539861 46.9375 232.6875 C47.4329834 233.24759766 47.9284668 233.80769531 48.43896484 234.38476562 C67.32015076 255.60350344 89.5454849 273.1891849 113.9375 287.6875 C116.04285925 288.99808614 118.14700291 290.31062682 120.25 291.625 C125.21811517 294.67951552 130.2387295 297.62445217 135.3125 300.5 C135.96645752 300.87310303 136.62041504 301.24620605 137.29418945 301.63061523 C141.4172505 303.94606246 145.57962687 305.85479828 149.9375 307.6875 C152.32489899 308.94646349 154.6131997 310.3118937 156.9375 311.6875 C157.41697883 318.99955212 157.41697883 318.99955212 155.5 321.75 C151.37949571 323.25750157 148.12239557 322.9336689 143.9375 321.6875 C140.78699536 320.0657383 137.81438098 318.29128312 134.83203125 316.37890625 C131.9198752 314.67720103 129.16409679 313.63874854 125.9375 312.6875 C125.9375 312.0275 125.9375 311.3675 125.9375 310.6875 C125.195 310.584375 124.4525 310.48125 123.6875 310.375 C120.76735982 309.64496496 119.20562446 308.61960602 116.9375 306.6875 C113.83312025 308.12029065 111.28320438 309.87607893 108.5625 311.9375 C94.04064606 322.21219429 77.05553542 326.12113497 59.53515625 323.30078125 C49.47522711 321.23593537 41.2508384 317.79470976 32.9375 311.6875 C31.2112165 310.57883113 29.48220815 309.47438907 27.75 308.375 C25.51953125 306.94921875 25.51953125 306.94921875 23.9375 305.6875 C23.9375 305.0275 23.9375 304.3675 23.9375 303.6875 C22.844375 303.419375 21.75125 303.15125 20.625 302.875 C15.40724063 301.19470461 15.40724063 301.19470461 13.9375 298.6875 C13.25 295.375 13.25 295.375 13.9375 291.6875 C20.66080788 283.3041161 35.63022929 279.25311158 45.9375 277.6875 C50.28914963 277.33439114 54.6364045 277.18336127 59 277.0625 C60.15177734 277.02382813 61.30355469 276.98515625 62.49023438 276.9453125 C65.30583796 276.85184848 68.1214486 276.76608748 70.9375 276.6875 C67.14477102 273.16282855 63.33998182 269.65213544 59.52294922 266.15380859 C58.23060147 264.95857598 56.9579763 263.74204669 55.69140625 262.51953125 C53.80987168 260.68783095 53.80987168 260.68783095 50.9375 258.6875 C45.40123696 259.11927095 40.39735681 262.05496416 35.41015625 264.3125 C21.33436831 269.88581536 3.42566365 267.86670915 -10.33984375 262.3828125 C-14.85812251 260.40613518 -18.4958112 258.10305792 -22.0625 254.6875 C-23.87306239 253.01872864 -25.68573125 251.3522411 -27.5 249.6875 C-28.42425781 248.82511719 -29.34851563 247.96273437 -30.30078125 247.07421875 C-32.83436411 244.88465846 -35.31595664 243.20283891 -38.1875 241.5 C-41.4648483 239.41334299 -41.96137834 238.94949703 -43.4375 235.125 C-43.06794877 231.73744707 -42.6656563 230.10729775 -40.05078125 227.8828125 C-25.31167019 219.02197167 -5.19895438 218.19930197 11.26416016 222.12036133 C14.1827696 222.90453086 17.06324684 223.75305485 19.9375 224.6875 C19.62039062 224.21183594 19.30328125 223.73617187 18.9765625 223.24609375 C17.96193908 221.72415862 16.94765591 220.20199665 15.93359375 218.6796875 C14.40724817 216.39166262 12.87832519 214.10544231 11.34765625 211.8203125 C10.4401019 210.46354318 9.53254982 209.10677235 8.625 207.75 C8.18043457 207.08734131 7.73586914 206.42468262 7.27783203 205.74194336 C4.05028493 200.91306987 4.05028493 200.91306987 2.9375 198.6875 C2.10089844 198.9040625 1.26429687 199.120625 0.40234375 199.34375 C-13.52618761 202.67549172 -25.51820725 202.8210711 -39.0625 197.6875 C-40.279375 197.275 -41.49625 196.8625 -42.75 196.4375 C-53.66067465 190.67337 -61.08273202 181.42587464 -68.41796875 171.7890625 C-69.87722516 169.92426452 -71.40734598 168.18717624 -73 166.4375 C-75.0625 163.6875 -75.0625 163.6875 -75.75 161.125 C-74.726158 157.49501472 -72.25186724 155.48627545 -69.0625 153.6875 C-63.62198465 152.37493422 -58.25477029 152.4655467 -52.6875 152.4375 C-51.16382812 152.4065625 -51.16382812 152.4065625 -49.609375 152.375 C-43.49260185 152.34322456 -39.5399464 153.0487302 -34.0625 155.6875 C-32.90621094 155.84089844 -31.74992187 155.99429688 -30.55859375 156.15234375 C-26.46651037 156.7787297 -23.71467122 158.21461941 -20.125 160.25 C-18.98160156 160.89066406 -17.83820313 161.53132812 -16.66015625 162.19140625 C-15.80292969 162.68511719 -14.94570312 163.17882812 -14.0625 163.6875 C-14.50335938 162.7078125 -14.94421875 161.728125 -15.3984375 160.71875 C-17.15026006 156.62636075 -18.44958741 152.45906257 -19.6875 148.1875 C-19.9040625 147.46691406 -20.120625 146.74632812 -20.34375 146.00390625 C-21.6425395 141.57038406 -22.51913946 137.27587785 -23.0625 132.6875 C-27.0225 132.6875 -30.9825 132.6875 -35.0625 132.6875 C-35.0625 132.0275 -35.0625 131.3675 -35.0625 130.6875 C-36.135 130.81125 -37.2075 130.935 -38.3125 131.0625 C-48.81951882 130.97000864 -57.32377613 123.41527052 -64.43359375 116.41796875 C-73.58093287 106.9172406 -78.09623032 96.73918796 -81.16796875 84.0078125 C-81.90543723 81.27048409 -82.74626298 79.16179964 -84.0625 76.6875 C-84.53307232 73.55035117 -84.32118829 72.14328413 -82.75 69.375 C-77.88466259 66.3200207 -72.25036145 67.0314945 -66.765625 68.16015625 C-64.45196436 68.86523166 -62.28305007 69.72845844 -60.0625 70.6875 C-59.18335937 71.04328125 -58.30421875 71.3990625 -57.3984375 71.765625 C-46.34493688 76.71139617 -36.41142022 84.955211 -28.0625 93.6875 C-28.14961104 90.93599263 -28.25649615 88.18768367 -28.375 85.4375 C-28.40883789 84.27154297 -28.40883789 84.27154297 -28.44335938 83.08203125 C-28.6512472 78.65969026 -28.92384077 76.03854971 -32.0625 72.6875 C-37.46207605 61.4729959 -37.82893217 47.54663685 -34.375 35.625 C-29.94861248 23.22494576 -22.16221858 15.5494712 -11.30859375 8.36328125 C-9.18869343 6.78165127 -7.93255749 5.39945976 -6.4375 3.25 C-3.90894 0.52181684 -3.49676059 0.23097868 0 0 Z " fill="#106EB0" transform="translate(101.0625,169.3125)"/>
<path d="M0 0 C-0.66 0.66 -1.32 1.32 -2 2 C11.53 2.66 25.06 3.32 39 4 C39 17.5 39 17.5 38.5 22.25 C38.4071875 23.16265625 38.314375 24.0753125 38.21875 25.015625 C38.1465625 25.67046875 38.074375 26.3253125 38 27 C37.01 27 36.02 27 35 27 C34.9484375 26.41992188 34.896875 25.83984375 34.84375 25.2421875 C34.12674369 20.30462135 33.16893868 17.58181201 29.125 14.5 C22.2468598 9.79252762 14.03233808 10.22458016 6 11 C1.8915369 12.59806692 -0.91583768 14.91583768 -4 18 C-4.58984092 22.32805348 -4.50361676 26.55629862 -3.0625 30.6875 C2.63007226 37.07008102 9.99901166 41.31889654 17.1875 45.8125 C44.67037037 63.01111111 44.67037037 63.01111111 48 73 C48.8047883 84.17417602 47.28355355 92.72561588 40.796875 101.92578125 C35.00707106 108.60922884 26.51935017 112.20771314 18 114 C14.31585344 114.24829335 10.62918217 114.23122476 6.9375 114.25 C5.95072266 114.270625 4.96394531 114.29125 3.94726562 114.3125 C-3.13880125 114.34962412 -9.26914452 113.19371128 -16 111 C-15.67 111.99 -15.34 112.98 -15 114 C-31.35712843 107.96904438 -44.92484161 94.1555255 -57 82 C-57.57363281 81.44957031 -58.14726562 80.89914062 -58.73828125 80.33203125 C-69.90398807 69.55421499 -78.77487874 56.5159321 -86.0625 42.875 C-86.45687256 42.14015381 -86.85124512 41.40530762 -87.25756836 40.64819336 C-90 35.38137336 -90 35.38137336 -90 32 C-89.12859375 31.69707031 -88.2571875 31.39414062 -87.359375 31.08203125 C-81.61342548 29.06099922 -75.91665204 27.0176947 -70.3125 24.625 C-62.75153909 21.41335349 -55.02562552 18.6608114 -47.31054688 15.84667969 C-44.03314896 14.6457059 -40.76656311 13.41767377 -37.5 12.1875 C-36.22659301 11.71085599 -34.95315356 11.23429869 -33.6796875 10.7578125 C-31.01990383 9.76145294 -28.36305732 8.757958 -25.70800781 7.74902344 C-22.01623346 6.34664472 -18.3208012 4.95422734 -14.625 3.5625 C-13.41650391 3.10061279 -12.20800781 2.63872559 -10.96289062 2.1628418 C-9.83302734 1.73914307 -8.70316406 1.31544434 -7.5390625 0.87890625 C-6.52021973 0.4929126 -5.50137695 0.10691895 -4.45166016 -0.29077148 C-2 -1 -2 -1 0 0 Z " fill="#FAFCFD" transform="translate(235,301)"/>
<path d="M0 0 C1.21558594 0.45632812 2.43117188 0.91265625 3.68359375 1.3828125 C7.9849671 3.07743322 12.26022386 4.82204942 16.515625 6.62890625 C19.90554407 8.06346697 23.32253279 9.42159802 26.74609375 10.7734375 C28.60252571 11.52505227 30.4476685 12.30475441 32.28515625 13.1015625 C37.58240482 15.39190259 42.52959354 17.20690036 48.19140625 18.296875 C51.21755734 19.03251394 53.86704351 20.35619851 56.67578125 21.6796875 C59.92829035 23.07706178 63.25921708 24.16543705 66.625 25.25 C72.37900391 27.11414503 77.96101254 29.23175032 83.51953125 31.6171875 C87.03754235 33.12279785 90.5934035 34.52252054 94.15625 35.91796875 C96.3125 36.8125 96.3125 36.8125 98.33203125 37.87109375 C100.41657138 38.86196983 102.23337311 39.28289265 104.5 39.6875 C108.55126724 40.53452346 111.94621639 41.92230092 115.67578125 43.6796875 C118.92826832 45.07705232 122.25914855 46.16568751 125.625 47.25 C131.3507876 49.10084605 136.87385817 51.24749092 142.40234375 53.62109375 C146.31590817 55.22329126 150.30110812 56.53485231 154.328125 57.8203125 C158.02963616 59.05091961 161.66650356 60.42761363 165.3125 61.8125 C168.10141535 62.85834326 168.10141535 62.85834326 170.89038086 63.90405273 C172.22466046 64.40451351 173.55879758 64.90535425 174.89282227 65.40649414 C178.36170816 66.70905585 181.83230335 68.00638088 185.30859375 69.2890625 C194.4547817 72.67289166 203.49946542 76.26441996 212.48876953 80.04589844 C214.08262446 80.71587226 215.67972149 81.37812259 217.27734375 82.0390625 C218.07269531 82.37679687 218.86804688 82.71453125 219.6875 83.0625 C220.33460938 83.33578125 220.98171875 83.6090625 221.6484375 83.890625 C223.59845716 84.97091758 224.88828358 86.09832335 226.3125 87.8125 C227.00514626 91.795216 226.61371305 93.35582214 224.375 96.75 C220.66832124 99.24633467 219.15797127 99.21300153 214.890625 98.45703125 C207.71260433 96.66252608 200.91436907 94.10710146 194.125 91.1875 C189.9028379 89.37878733 185.95109733 88.1984548 181.45703125 87.33203125 C177.51801534 86.37777056 173.95521014 84.55438932 170.3125 82.8125 C164.3274934 79.99987395 158.32034826 77.73785853 152.01171875 75.7421875 C149.3125 74.8125 149.3125 74.8125 147.21875 73.75 C145.16408085 72.73950697 143.37382871 72.33893026 141.125 71.9375 C136.15886888 70.89713211 131.87219829 68.99287929 127.3125 66.8125 C121.3274934 63.99987395 115.32034826 61.73785853 109.01171875 59.7421875 C106.3125 58.8125 106.3125 58.8125 104.21875 57.75 C102.16408085 56.73950697 100.37382871 56.33893026 98.125 55.9375 C93.15886888 54.89713211 88.87219829 52.99287929 84.3125 50.8125 C78.45681175 48.06064651 72.58924451 45.86937514 66.4296875 43.88671875 C63.25352974 42.79217817 60.2062725 41.52428616 57.125 40.1875 C53.6405368 38.6922167 50.41378703 37.50667649 46.6875 36.8125 C42.33032619 35.98330714 38.87293948 34.16322689 34.97265625 32.1015625 C31.22943643 30.28766743 27.35472722 29.1021507 23.39453125 27.8515625 C20.22201458 26.78199414 17.19483694 25.52153333 14.125 24.1875 C9.84631622 22.35297937 5.82153266 21.12677614 1.25390625 20.28515625 C-0.6875 19.8125 -0.6875 19.8125 -3.625 18.125 C-11.62990043 14.69432839 -20.80917177 18.96368372 -28.4453125 21.87109375 C-29.56681702 22.2872142 -30.68832153 22.70333466 -31.84381104 23.13206482 C-34.87564553 24.25961657 -37.90331249 25.39755866 -40.92937469 26.5404892 C-44.1015448 27.7356773 -47.27883157 28.91710873 -50.45556641 30.10009766 C-56.30844724 32.28200337 -62.15681998 34.47570723 -68.00312996 36.67515182 C-74.48351657 39.11292413 -80.9682358 41.53907718 -87.453125 43.96484375 C-94.51182994 46.60640674 -101.56856995 49.25306349 -108.62216187 51.9082489 C-117.90425975 55.40193973 -127.19975606 58.85663978 -136.51025391 62.27392578 C-139.91399448 63.52454593 -143.31079838 64.7927707 -146.70516968 66.068573 C-150.08147517 67.33562965 -153.46281166 68.58911937 -156.84375 69.84375 C-157.96360291 70.25953308 -157.96360291 70.25953308 -159.1060791 70.68371582 C-162.26058918 71.8549293 -165.41521164 73.02583998 -168.56982422 74.19677734 C-170.89033881 75.05816233 -173.2107955 75.91970317 -175.53125 76.78125 C-176.58004333 77.17044617 -176.58004333 77.17044617 -177.65002441 77.56750488 C-180.99786326 78.81051931 -184.34412133 80.05753435 -187.6875 81.3125 C-191.73615261 82.83219623 -195.78943475 84.33923629 -199.84375 85.84375 C-200.96360291 86.25953308 -200.96360291 86.25953308 -202.1060791 86.68371582 C-205.26058918 87.8549293 -208.41521164 89.02583998 -211.56982422 90.19677734 C-213.89033881 91.05816233 -216.2107955 91.91970317 -218.53125 92.78125 C-219.23044556 93.04071411 -219.92964111 93.30017822 -220.65002441 93.56750488 C-221.32432495 93.81786499 -221.99862549 94.0682251 -222.69335938 94.32617188 C-223.67731689 94.6904126 -223.67731689 94.6904126 -224.68115234 95.06201172 C-226.07768418 95.58439416 -227.47103688 96.11532213 -228.86181641 96.65283203 C-236.26446958 99.50052695 -236.26446958 99.50052695 -240.6875 98.8125 C-243.5625 97.3125 -243.5625 97.3125 -245.6875 94.8125 C-246.4026093 91.99819887 -246.60650299 89.58032077 -245.6875 86.8125 C-242.09670556 83.24191641 -238.0778468 81.5720545 -233.375 79.9375 C-232.10786324 79.48235417 -230.84094932 79.02658759 -229.57421875 78.5703125 C-228.84283691 78.30943848 -228.11145508 78.04856445 -227.35791016 77.77978516 C-223.98010391 76.55626456 -220.61676417 75.29510946 -217.25390625 74.03125 C-216.56993271 73.77422302 -215.88595917 73.51719604 -215.18125916 73.25238037 C-213.74840341 72.71387259 -212.31555755 72.1753385 -210.88272095 71.63677979 C-204.98748478 69.42318757 -199.08732808 67.22277635 -193.18603516 65.02539062 C-191.67955161 64.46401695 -190.17336924 63.90183442 -188.66748047 63.33886719 C-174.48509593 58.03766978 -174.48509593 58.03766978 -167.359375 55.7265625 C-163.57999392 54.48984234 -159.9239277 53.11698681 -156.265625 51.55859375 C-147.1193627 47.66533278 -137.75927548 44.31979582 -128.4375 40.875 C-126.55590499 40.17796269 -124.67439405 39.48069838 -122.79296875 38.78320312 C-120.02097853 37.75555783 -117.24893902 36.72804926 -114.4765625 35.70144653 C-108.47760068 33.47944052 -102.48485053 31.24150227 -96.49639893 28.99134827 C-87.99671097 25.7989934 -79.48196636 22.64711937 -70.96923828 19.48974609 C-66.58589764 17.86374603 -62.20308361 16.23634254 -57.82125854 14.60626221 C-56.40887544 14.08085302 -54.99638107 13.55574283 -53.58377075 13.03094482 C-46.59047214 10.43111612 -39.6145527 7.8019665 -32.68359375 5.0390625 C-31.59369141 4.60722656 -30.50378906 4.17539062 -29.38085938 3.73046875 C-27.17186447 2.85323142 -24.96621826 1.96752344 -22.76367188 1.07421875 C-14.29322916 -2.25725244 -8.71233768 -3.2886292 0 0 Z " fill="#116FB0" transform="translate(329.6875,19.1875)"/>
<path d="M0 0 C0 60.72 0 121.44 0 184 C-4.78616247 185.79481093 -9.57143398 187.58282879 -14.37109375 189.33984375 C-15.52287109 189.76330078 -16.67464844 190.18675781 -17.86132812 190.62304688 C-20.24073748 191.49761951 -22.62094466 192.3700247 -25.00195312 193.24023438 C-32.19817413 195.88310787 -32.19817413 195.88310787 -39.22265625 198.94140625 C-43.51336536 200.90699625 -47.93051217 202.35611327 -52.41015625 203.8203125 C-61.85747826 206.90844874 -71.14573199 210.35038385 -80.4375 213.875 C-83.92651702 215.19290868 -87.41639653 216.50852687 -90.90625 217.82421875 C-91.80121689 218.16199844 -92.69618378 218.49977814 -93.61827087 218.84779358 C-100.35155863 221.38659136 -107.0952448 223.89649237 -113.84375 226.39453125 C-115.30349998 226.93533325 -115.30349998 226.93533325 -116.79273987 227.48706055 C-120.6037223 228.89874349 -124.41473169 230.31032265 -128.22775269 231.7164917 C-130.85982461 232.68733185 -133.49055767 233.66172626 -136.12109375 234.63671875 C-136.88824707 234.91844437 -137.65540039 235.20016998 -138.44580078 235.49043274 C-143.05118696 237.2014036 -147.53367715 239.09980982 -152.01139832 241.12055969 C-154.22352364 242.09885122 -156.4506351 242.94125756 -158.74609375 243.703125 C-159.52017578 243.9609375 -160.29425781 244.21875 -161.09179688 244.484375 C-161.86587891 244.73703125 -162.63996094 244.9896875 -163.4375 245.25 C-164.23865234 245.518125 -165.03980469 245.78625 -165.86523438 246.0625 C-171.732103 248 -171.732103 248 -174 248 C-177.29475189 240.51748667 -179.40127512 233.028599 -181.1875 225.0625 C-181.44724609 223.95970703 -181.70699219 222.85691406 -181.97460938 221.72070312 C-183.55254925 214.8095711 -184.52878992 208.06815121 -185 201 C-185.12503906 199.71351563 -185.25007813 198.42703125 -185.37890625 197.1015625 C-185.88403793 187.53630296 -183.54253484 182.44405108 -178.13769531 174.71728516 C-172.7458292 166.57857567 -168.89891325 157.2821415 -165.625 148.125 C-165.3863623 147.46016602 -165.14772461 146.79533203 -164.90185547 146.11035156 C-158.32923182 126.86297211 -158.35879939 104.30735413 -167.05566406 85.74707031 C-170.29330699 79.29675343 -173.58008619 72.89144149 -179 68 C-178.67 67.01 -178.34 66.02 -178 65 C-175.5116272 63.75984192 -175.5116272 63.75984192 -172.14306641 62.52661133 C-171.52834315 62.29794687 -170.9136199 62.06928242 -170.28026867 61.83368874 C-168.22457476 61.07213349 -166.16324638 60.32720239 -164.1015625 59.58203125 C-162.65072017 59.04814884 -161.20026193 58.51322161 -159.75016785 57.97731018 C-155.85459339 56.54072682 -151.9540505 55.11811043 -148.05249405 53.69786835 C-144.00411279 52.22132152 -139.96059248 50.73159288 -135.91674805 49.24267578 C-129.51376357 46.88648293 -123.10856414 44.53643047 -116.70166016 42.19091797 C-106.89434644 38.59945388 -97.10374122 34.96382693 -87.3192749 31.31060791 C-83.17881516 29.76525699 -79.03654931 28.22476182 -74.89453125 26.68359375 C-73.27814295 26.08190772 -71.66176934 25.48018221 -70.04541016 24.87841797 C-68.82123383 24.42266388 -68.82123383 24.42266388 -67.57232666 23.95770264 C-64.83385088 22.93814104 -62.09539154 21.91853528 -59.35693359 20.89892578 C-54.50533215 19.0925431 -49.65361783 17.28646382 -44.80184937 15.48052979 C-42.12276984 14.48320289 -39.44382665 13.48551049 -36.76489258 12.48779297 C-33.47561855 11.2628441 -30.18540268 10.04047441 -26.89453125 8.81982422 C-23.47162241 7.54972577 -20.05327728 6.26803473 -16.63671875 4.98095703 C-14.90367563 4.33227715 -13.17060369 3.68367427 -11.4375 3.03515625 C-10.63344727 2.72992538 -9.82939453 2.42469452 -9.00097656 2.11021423 C-3.33930844 0 -3.33930844 0 0 0 Z M-19.45703125 14.49609375 C-20.89876709 15.04499268 -20.89876709 15.04499268 -22.36962891 15.60498047 C-23.56765137 16.06533691 -24.76567383 16.52569336 -26 17 C-28.47851623 17.92542841 -30.95942067 18.84428625 -33.44039917 19.76309204 C-38.19174946 21.52333222 -42.93920957 23.29402631 -47.6875 25.0625 C-49.64126276 25.78974923 -51.5950387 26.51696304 -53.54882812 27.24414062 C-55.43230347 27.94528078 -57.31576741 28.6464516 -59.19921875 29.34765625 C-60.49638069 29.83057884 -60.49638069 29.83057884 -61.81974792 30.32325745 C-65.43016529 31.66797519 -69.03965561 33.0148984 -72.64624023 34.36987305 C-78.51056772 36.57070988 -84.38605977 38.74163659 -90.25938034 40.91832733 C-94.87494238 42.62917033 -99.48992202 44.34158402 -104.10503197 46.05364609 C-108.12787161 47.54589361 -112.15089324 49.03764675 -116.17431641 50.52832031 C-140.65801012 59.57789627 -140.65801012 59.57789627 -165 69 C-164.20590707 72.60516297 -162.82361973 74.86764123 -160.75 77.9375 C-149.51829366 97.06613801 -149.37377232 121.60599164 -154.80712891 142.56933594 C-159.08204792 157.89143829 -164.96384891 173.10771092 -174.2421875 186.15234375 C-180.33802002 196.02759244 -174.38264385 214.39116144 -172 225 C-171.07622065 228.35996062 -170.05935626 231.68085484 -169 235 C-162.89771976 233.79544963 -157.19277529 232.13873792 -151.390625 229.91015625 C-150.59299744 229.60944214 -149.79536987 229.30872803 -148.97357178 228.99890137 C-146.39682563 228.02585912 -143.82341902 227.0443036 -141.25 226.0625 C-139.46895485 225.38804929 -137.68770295 224.71414433 -135.90625 224.04077148 C-131.44745946 222.35387654 -126.99131331 220.66011709 -122.53588867 218.96435547 C-118.66617752 217.49276992 -114.79406236 216.02755468 -110.921875 214.5625 C-104.27880139 212.04809615 -97.63831636 209.52694099 -91 207 C-91.65481093 193.08827401 -92.79439078 179.24292667 -94.0625 165.375 C-94.25093323 163.28908797 -94.43908587 161.20315058 -94.62695312 159.1171875 C-95.08090035 154.07777342 -95.54055578 149.03892775 -96 144 C-87.09 144 -78.18 144 -69 144 C-69.45375 147.2175 -69.9075 150.435 -70.375 153.75 C-72.49002964 169.15340935 -74.46417524 184.42434196 -74 200 C-67.22167394 198.05132069 -60.60264772 195.83399145 -54.00390625 193.34765625 C-53.0897142 193.00625107 -52.17552216 192.66484589 -51.23362732 192.31309509 C-48.34211192 191.23258071 -45.45225891 190.1477021 -42.5625 189.0625 C-39.67595841 187.98183268 -36.78907734 186.90207735 -33.90208435 185.82261658 C-32.11631294 185.15455022 -30.33085661 184.48564073 -28.54579163 183.81568909 C-22.37749126 181.50311583 -16.19180669 179.25156607 -10 177 C-10 122.88 -10 68.76 -10 13 C-14.22480243 13 -15.79964078 13.07315647 -19.45703125 14.49609375 Z " fill="#F0F6FA" transform="translate(313,74)"/>
<path d="M0 0 C6.09515033 1.35447785 9.99633322 2.33889245 15.34765625 4.859375 C19.87226854 6.8051582 24.57077374 8.24241904 29.25390625 9.75390625 C33.2120412 11.07053299 37.10321818 12.51443882 41 14 C42.85958904 14.69734589 44.71917812 15.39469173 46.57885742 16.09179688 C47.90998801 16.59116115 49.2408628 17.09120761 50.5715332 17.59179688 C54.08789655 18.91359894 57.60734269 20.22502826 61.13671875 21.51171875 C67.54129417 23.85916661 73.7776338 26.29899433 79.9375 29.25 C84.27431729 31.31413252 88.19130466 32.65978267 92.8984375 33.515625 C96.00360919 34.23131513 98.73230637 35.57222489 101.60546875 36.92578125 C104.25867926 38.11604698 106.94584687 39.09420302 109.6875 40.0625 C112.65737877 41.11287321 115.32296412 42.16794134 118.125 43.625 C120.67268652 44.84345877 122.58213348 45.39706601 125.3125 45.9375 C129.33007342 46.75034238 132.66935843 48.1265956 136.36328125 49.8671875 C139.61576832 51.26455232 142.94664855 52.35318751 146.3125 53.4375 C152.02762385 55.28489902 157.5414872 57.4248945 163.05859375 59.796875 C167.94875657 61.79710096 172.96640054 63.40245691 178 65 C177.38527349 68.49133133 176.02309225 70.52383316 173.875 73.3125 C161.24558506 90.95729989 157.47881324 111.0456725 160.32519531 132.44482422 C161.17017001 137.09218503 162.49060358 141.52179076 164 146 C164.49113281 147.546875 164.49113281 147.546875 164.9921875 149.125 C169.08196424 160.8271349 175.02211622 173.1554098 182.3125 183.1796875 C189.08848808 194.50437127 182.16159489 216.75296923 179.1472168 228.75463867 C177.50554922 235.08413105 175.71259767 241.03859348 173 247 C167.44705349 246.15085727 162.97753962 245.21890764 158.1875 242.14453125 C154.43266629 240.17994861 150.36081734 239.01977994 146.3293457 237.75073242 C143.05738278 236.7154711 140.05964588 235.53644555 137 234 C135.613684 233.66601183 134.21629024 233.37558551 132.8125 233.125 C127.84636888 232.08463211 123.55969829 230.18037929 119 228 C113.0149934 225.18737395 107.00784826 222.92535853 100.69921875 220.9296875 C98 220 98 220 95.9140625 218.9375 C93.81968698 217.91168342 91.97977436 217.52401046 89.6875 217.125 C86.0126538 216.35915968 83.39005712 215.13660771 80.19140625 213.1328125 C76.58091728 211.26642783 72.69680586 210.16222105 68.83496094 208.93310547 C64.66115853 207.59159966 60.64986206 206.06468067 56.625 204.3125 C52.46215243 202.51807307 48.56443644 201.37257895 44.12890625 200.515625 C41.06151988 199.77269839 38.35274731 198.47052917 35.50390625 197.1328125 C31.52377599 195.33212954 27.42809672 193.84281932 23.34375 192.296875 C19.16462072 190.67599776 15.05483478 188.91131851 10.94921875 187.11328125 C7.39930896 185.77324908 3.68111821 184.92027955 0 184 C0 123.28 0 62.56 0 0 Z M9 12 C9 66.45 9 120.9 9 177 C19.00976542 180.87774369 19.00976542 180.87774369 29 184 C37.37123211 186.88516149 45.63215349 190.10062823 53.91943359 193.21777344 C56.61608252 194.23162736 59.31358659 195.24319142 62.01123047 196.25439453 C63.3397881 196.75248132 64.66823825 197.25085491 65.99658203 197.74951172 C69.34090499 199.00475577 72.6865851 200.25612931 76.03515625 201.5 C82.55478909 203.92590989 89.04905593 206.39639253 95.5 209 C105.8740462 213.18046356 116.30100963 217.16036698 126.9375 220.625 C131.63818553 222.16411914 136.08656775 223.86884674 140.55859375 225.96484375 C145.08078115 227.88225121 149.78529762 229.3097896 154.453125 230.828125 C157.27267558 231.75969457 160.0442478 232.74157032 162.8125 233.8125 C165.74544134 235.11636967 165.74544134 235.11636967 168 235 C171.13787968 222.70668394 173.87110116 210.65246364 175 198 C175.19529297 196.74896484 175.19529297 196.74896484 175.39453125 195.47265625 C176.2097079 187.83210223 171.02275004 182.05598784 167 176 C153.17561416 153.33974491 147.17097128 125.75338574 152.125 99.5 C154.35654772 90.77475418 157.55901878 81.94312671 162.25390625 74.24609375 C162.83011719 73.17488281 163.40632812 72.10367188 164 71 C163.34207569 67.84939935 163.34207569 67.84939935 160.8125 66.90234375 C156.35870424 65.37444437 151.99756982 63.92288055 147.375 63 C143.45221239 62.20296718 140.11803539 60.82988183 136.50390625 59.1328125 C133.6051397 57.82135805 130.6625291 56.6901034 127.6875 55.5625 C123.32101849 53.90466531 118.99303909 52.18528348 114.6875 50.375 C105.82282433 46.60354052 105.82282433 46.60354052 96.5625 44.0625 C92.47239749 43.21917989 88.95393571 41.77472544 85.18359375 40.00390625 C83.14548445 39.06688641 81.10802365 38.26389768 79 37.5 C76.18240198 36.47390623 73.47176586 35.32058242 70.75 34.0625 C66.17715946 31.98682803 61.48361523 30.44318286 56.69921875 28.9296875 C54 28 54 28 51.90625 26.9375 C49.85158085 25.92700697 48.06132871 25.52643026 45.8125 25.125 C41.62728322 24.25365159 38.03175199 22.81014921 34.171875 21 C31.57660057 19.8050535 28.93401103 18.83341126 26.25 17.859375 C22.32749255 16.36119507 18.48791276 14.65992628 14.63671875 12.98828125 C12.00111449 11.82451429 12.00111449 11.82451429 9 12 Z " fill="#F1F6FA" transform="translate(327,74)"/>
<path d="M0 0 C0.94955566 0.03673828 1.89911133 0.07347656 2.87744141 0.11132812 C9.25365822 0.36870545 15.62721984 0.66867183 22 1 C22.12152487 8.73708326 21.84800767 16.307359 21 24 C20.01 24 19.02 24 18 24 C17.9484375 23.41992188 17.896875 22.83984375 17.84375 22.2421875 C17.12674369 17.30462135 16.16893868 14.58181201 12.125 11.5 C5.2468598 6.79252762 -2.96766192 7.22458016 -11 8 C-15.1084631 9.59806692 -17.91583768 11.91583768 -21 15 C-21.58984092 19.32805348 -21.50361676 23.55629862 -20.0625 27.6875 C-14.36992774 34.07008102 -7.00098834 38.31889654 0.1875 42.8125 C27.67037037 60.01111111 27.67037037 60.01111111 31 70 C31.8047883 81.17417602 30.28355355 89.72561588 23.796875 98.92578125 C17.73239186 105.92630418 7.85265245 110.48585605 -1.35913086 111.17700195 C-30.08193592 111.85248439 -30.08193592 111.85248439 -41 103 C-44.16250154 99.83749846 -43.37062169 96.27480377 -43.37890625 91.97045898 C-43.25290156 85.99740696 -41.76203028 81.24045925 -39 76 C-38.01 76 -37.02 76 -36 76 C-35.99742187 76.68964844 -35.99484375 77.37929688 -35.9921875 78.08984375 C-35.62683608 86.96788315 -32.65296267 92.80685627 -26.1875 98.875 C-20.05207351 102.96528433 -13.42236598 105.01713904 -6 104 C-0.17650907 102.76742063 4.69203845 101.30796155 9 97 C9.33 96.34 9.66 95.68 10 95 C10.66 95 11.32 95 12 95 C13.12701603 86.92078513 13.12701603 86.92078513 10.37109375 79.51953125 C3.47812315 73.11641643 -4.99467386 68.28140639 -12.94628906 63.29589844 C-15.90941474 61.42615627 -18.831361 59.50105282 -21.75 57.5625 C-22.65234375 56.96566406 -23.5546875 56.36882812 -24.484375 55.75390625 C-29.0040949 52.60273507 -32.78982174 49.51802866 -36 45 C-36 44.34 -36 43.68 -36 43 C-36.99 42.67 -37.98 42.34 -39 42 C-42.01601849 34.85679832 -42.32445369 25.95445558 -39.75 18.625 C-35.76841992 9.78516166 -29.87232805 4.77082064 -20.9375 1.125 C-14.14807971 -0.858164 -6.99144115 -0.27118988 0 0 Z " fill="#1471AF" transform="translate(252,304)"/>
<path d="M0 0 C0 18.81 0 37.62 0 57 C-3.3 56.34 -6.6 55.68 -10 55 C-13.00079213 54.84604632 -15.88377154 54.75881298 -18.875 54.8125 C-19.64730957 54.82039551 -20.41961914 54.82829102 -21.21533203 54.83642578 C-32.98156218 54.67552391 -32.98156218 54.67552391 -44 58 C-44.99 58 -45.98 58 -47 58 C-47.06943899 50.47235183 -47.12278005 42.94473676 -47.15543652 35.41684151 C-47.17110825 31.92149691 -47.19237331 28.42637104 -47.22631836 24.93115234 C-47.26507941 20.91501742 -47.27969664 16.89911309 -47.29296875 12.8828125 C-47.30845261 11.62445587 -47.32393646 10.36609924 -47.33988953 9.0696106 C-47.34011612 7.90855804 -47.34034271 6.74750549 -47.34057617 5.55126953 C-47.34723801 4.52534698 -47.35389984 3.49942444 -47.36076355 2.44241333 C-47.24171158 1.63641693 -47.12265961 0.83042053 -47 0 C-33.3938719 -9.07075207 -13.97827589 -5.59131036 0 0 Z " fill="#FCFDFE" transform="translate(407,160)"/>
<path d="M0 0 C0 18.81 0 37.62 0 57 C-3.63 56.34 -7.26 55.68 -11 55 C-14.28557 54.70693424 -14.28557 54.70693424 -17.19140625 54.734375 C-18.76245117 54.73050781 -18.76245117 54.73050781 -20.36523438 54.7265625 C-21.42033203 54.73429687 -22.47542969 54.74203125 -23.5625 54.75 C-24.62146484 54.74226563 -25.68042969 54.73453125 -26.77148438 54.7265625 C-27.81755859 54.72914063 -28.86363281 54.73171875 -29.94140625 54.734375 C-30.86638916 54.73663086 -31.79137207 54.73888672 -32.74438477 54.74121094 C-37.21252055 55.09638334 -41.60481198 56.1209624 -46 57 C-46 37.86 -46 18.72 -46 -1 C-29.82334725 -6.39221758 -15.88694119 -6.35477648 0 0 Z " fill="#FCFDFE" transform="translate(458,160)"/>
<path d="M0 0 C7.08138621 2.39424328 13.56585417 8.09227609 17.4375 14.5 C22.57900318 26.01696713 22.57900318 26.01696713 22 32 C22.763125 31.175 23.52625 30.35 24.3125 29.5 C27 27 27 27 30 27 C33.78799588 33.59131379 33.81036562 39.55696791 33 47 C31.99026771 49.79656246 31.14635223 50.85364777 29 53 C28.01 53.33 27.02 53.66 26 54 C26 54.66 26 55.32 26 56 C21.05 56.495 21.05 56.495 16 57 C16.061875 55.535625 16.12375 54.07125 16.1875 52.5625 C16.2005843 47.95028402 15.39201451 44.29696554 13.75390625 40.0078125 C13.00904456 38.0240876 12.47639483 36.06283586 12 34 C11.34 34 10.68 34 10 34 C9.90332031 34.73734375 9.80664062 35.4746875 9.70703125 36.234375 C8.90594518 39.36790503 7.82507151 40.85152575 5.6875 43.25 C5.09324219 43.93578125 4.49898437 44.6215625 3.88671875 45.328125 C1.88206032 47.10450969 0.61621858 47.60727845 -2 48 C-2 48.66 -2 49.32 -2 50 C-10.77578475 50.76681614 -10.77578475 50.76681614 -13.77734375 48.88671875 C-15.125 47.5 -15.125 47.5 -17 45 C-17.08948558 49.47427924 -16.85743651 53.60563789 -16 58 C-19.92510917 57.41850235 -22.15007824 55.70742568 -25 53 C-29.14239835 47.40216439 -29.8771784 42.88747483 -29 36 C-27.64025874 29.75193271 -24.38195851 25.53795056 -20 21 C-17.9754262 22.93254772 -16.57894208 24.63158688 -15 27 C-12.08559301 27.66721536 -12.08559301 27.66721536 -9 27 C-2.95643956 21.66744667 -0.8975697 13.10023286 -0.25 5.375 C-0.15075861 3.58414405 -0.0615995 1.79254551 0 0 Z " fill="#F5F9FB" transform="translate(230,124)"/>
<path d="M0 0 C1.32 0.33 2.64 0.66 4 1 C4 20.14 4 39.28 4 59 C-5 57 -5 57 -8 56 C-8 56.66 -8 57.32 -8 58 C-7.12988281 58.18175781 -7.12988281 58.18175781 -6.2421875 58.3671875 C-5.46101563 58.53476563 -4.67984375 58.70234375 -3.875 58.875 C-3.10929687 59.03742188 -2.34359375 59.19984375 -1.5546875 59.3671875 C1.34134171 60.08455253 4.16955163 61.05651721 7 62 C7 44.51 7 27.02 7 9 C8.32 9.33 9.64 9.66 11 10 C11 29.14 11 48.28 11 68 C7.33066059 67.26613212 4.53123587 66.5192215 1.125 65.1875 C-9.43636767 61.26102138 -20.5343116 58.10892376 -31.8359375 57.68359375 C-32.89941406 57.64169922 -33.96289062 57.59980469 -35.05859375 57.55664062 C-36.70021484 57.49766602 -36.70021484 57.49766602 -38.375 57.4375 C-40.05142578 57.37272461 -40.05142578 57.37272461 -41.76171875 57.30664062 C-44.50770199 57.20102589 -47.25376881 57.0989203 -50 57 C-50 55.68 -50 54.36 -50 53 C-48.43979133 52.34865075 -46.87671421 51.70417036 -45.3125 51.0625 C-44.00732422 50.52302734 -44.00732422 50.52302734 -42.67578125 49.97265625 C-28.37517782 44.77433471 -13.76815567 49.41061478 0 54 C0 36.18 0 18.36 0 0 Z " fill="#E9F1F7" transform="translate(462,169)"/>
<path d="M0 0 C0.99 0 1.98 0 3 0 C3 17.49 3 34.98 3 53 C6.3 52.01 9.6 51.02 13 50 C19.44174507 48.3295041 25.29195206 47.64598927 31.9375 47.6875 C32.81196777 47.68951416 33.68643555 47.69152832 34.58740234 47.69360352 C41.61117221 47.80292034 47.68123919 48.8406196 54 52 C54 53.32 54 54.64 54 56 C37.665 56.495 37.665 56.495 21 57 C21 57.66 21 58.32 21 59 C20.36835938 59.07476562 19.73671875 59.14953125 19.0859375 59.2265625 C11.72139176 60.30895971 5.66723527 62.66050404 -1.03125 65.7578125 C-4 67 -4 67 -7 67 C-7 47.86 -7 28.72 -7 9 C-5.68 8.67 -4.36 8.34 -3 8 C-3 25.49 -3 42.98 -3 61 C-2.01 60.34 -1.02 59.68 0 59 C0.43930051 56.41572337 0.43930051 56.41572337 0.34057617 53.35693359 C0.34023628 51.58532364 0.34023628 51.58532364 0.33988953 49.77792358 C0.32440567 48.49769318 0.30892181 47.21746277 0.29296875 45.8984375 C0.28872391 44.59170074 0.28447906 43.28496399 0.28010559 41.93862915 C0.26864632 38.46308214 0.23917049 34.98791073 0.20599365 31.51251221 C0.17531569 27.9667265 0.16160516 24.42088015 0.14648438 20.875 C0.11430135 13.91651229 0.06309229 6.95827417 0 0 Z " fill="#F0F6FA" transform="translate(353,170)"/>
<path d="M0 0 C1.97226562 -0.02416992 1.97226562 -0.02416992 3.984375 -0.04882812 C11.32941489 -0.05251539 17.19942908 0.48638555 24 3.3125 C21.30947727 6.1692564 18.68616785 8.31328942 15.3125 10.3125 C14.52488281 10.786875 13.73726563 11.26125 12.92578125 11.75 C11.47751953 12.5234375 11.47751953 12.5234375 10 13.3125 C9.36030273 13.66175537 8.72060547 14.01101074 8.06152344 14.37084961 C1.89018209 17.46411366 -3.53061996 17.97542035 -10.375 17.875 C-11.38852539 17.86839355 -12.40205078 17.86178711 -13.44628906 17.85498047 C-20.82879296 17.66583801 -26.79519676 16.54304766 -33 12.3125 C-33.99 11.6525 -34.98 10.9925 -36 10.3125 C-35 7.3125 -35 7.3125 -32.8125 5.99609375 C-31.884375 5.58488281 -30.95625 5.17367188 -30 4.75 C-29.0925 4.33621094 -28.185 3.92242187 -27.25 3.49609375 C-18.19600878 0.19878685 -9.59611731 -0.0235199 0 0 Z " fill="#F2F7FA" transform="translate(477,461.6875)"/>
<path d="M0 0 C2.12431129 0.00314069 4.24720007 -0.02027601 6.37133789 -0.0456543 C18.5802775 -0.10348152 29.03543191 1.656026 39.45922852 8.31567383 C39.45922852 8.97567383 39.45922852 9.63567383 39.45922852 10.31567383 C32.94571408 16.72820355 19.47974613 17.56787456 10.70922852 17.87817383 C-1.32014385 17.48314147 -11.67747367 12.36191413 -20.54077148 4.31567383 C-20.54077148 3.65567383 -20.54077148 2.99567383 -20.54077148 2.31567383 C-13.66445143 0.1007239 -7.17792134 -0.02214648 0 0 Z " fill="#F4F8FB" transform="translate(158.540771484375,461.684326171875)"/>
<path d="M0 0 C22.11 0 44.22 0 67 0 C67 3.3 67 6.6 67 10 C44.89 10 22.78 10 0 10 C0 6.7 0 3.4 0 0 Z " fill="#F4F8FB" transform="translate(197,186)"/>
<path d="M0 0 C0 3 0 3 -1.22265625 4.32421875 C-3.43519513 5.96365839 -5.69561085 7.49161175 -8 9 C-9.02222656 9.71542969 -10.04445313 10.43085938 -11.09765625 11.16796875 C-21.63427294 18.00025923 -32.68728663 18.75181805 -45 17 C-48.39409288 16.15935603 -51.69920665 15.15156367 -55 14 C-53.76417021 10.29251062 -51.98225717 9.28299304 -48.69921875 7.33203125 C-35.13442573 0.63797275 -14.91089509 -4.97029836 0 0 Z " fill="#F0F6FA" transform="translate(558,405)"/>
<path d="M0 0 C0.59425781 0.45117188 1.18851563 0.90234375 1.80078125 1.3671875 C1.80078125 2.0271875 1.80078125 2.6871875 1.80078125 3.3671875 C-9.76927712 7.64861879 -23.98351247 8.3072972 -35.80859375 4.48046875 C-40.16221602 2.45304661 -43.61987481 -0.47660805 -47.19921875 -3.6328125 C-48.38565129 -4.57166304 -49.57301116 -5.50934414 -50.76171875 -6.4453125 C-51.56609375 -7.1671875 -52.37046875 -7.8890625 -53.19921875 -8.6328125 C-53.19921875 -9.2928125 -53.19921875 -9.9528125 -53.19921875 -10.6328125 C-35.99536558 -15.92630578 -14.70558903 -8.82792747 0 0 Z " fill="#F2F7FB" transform="translate(134.19921875,415.6328125)"/>
<path d="M0 0 C9.00922442 4.34080813 15.33269641 8.85923888 18.75 18.5625 C21.06088817 26.9221064 21.03207773 35.85129111 18 44 C10.22665838 41.40888613 5.68427097 34.77357364 2.0625 27.6875 C-0.41027686 22.48209515 -1.13847383 18.40527344 -1.125 12.625 C-1.12757813 11.52414063 -1.13015625 10.42328125 -1.1328125 9.2890625 C-1.00444337 6.11003884 -0.59426995 3.12227545 0 0 Z " fill="#F2F7FA" transform="translate(540,190)"/>
<path d="M0 0 C2.89461826 9.5781271 1.6175968 20.23736748 -3 29 C-5.11748165 32.21636431 -7.43879472 35.12799677 -10 38 C-10.48082031 38.55042969 -10.96164063 39.10085937 -11.45703125 39.66796875 C-12.75 41.0625 -12.75 41.0625 -15 43 C-15.99 43 -16.98 43 -18 43 C-19.84460593 39.31078814 -19.22793136 34.93563042 -19.25 30.875 C-19.270625 29.94945312 -19.29125 29.02390625 -19.3125 28.0703125 C-19.36457817 18.85247559 -17.18864338 12.58420896 -10.83984375 5.765625 C-7.55007795 2.60856738 -4.74280788 0 0 0 Z " fill="#F6FAFC" transform="translate(99,191)"/>
<path d="M0 0 C15.18 0 30.36 0 46 0 C46 3.3 46 6.6 46 10 C30.82 10 15.64 10 0 10 C0 6.7 0 3.4 0 0 Z " fill="#F4F8FB" transform="translate(207,202)"/>
<path d="M0 0 C11.67017849 -0.67041451 20.60582218 3.00051903 31 8 C31 8.66 31 9.32 31 10 C31.721875 10.268125 32.44375 10.53625 33.1875 10.8125 C37.90134071 12.8027883 41.61847638 15.11750992 45 19 C45 19.66 45 20.32 45 21 C30.87592996 21.86473898 19.66322357 20.91290384 8.3125 11.375 C5.91310234 9.10860664 3.84956374 6.73802488 2 4 C2 3.34 2 2.68 2 2 C1.34 2 0.68 2 0 2 C0 1.34 0 0.68 0 0 Z " fill="#EAF2F8" transform="translate(48,336)"/>
<path d="M0 0 C-4.80348506 10.35314256 -13.48069382 16.3328538 -23.86132812 20.35546875 C-30.27318425 22.28780895 -37.6838035 22.10539883 -44 20 C-40.72425349 11.66173615 -29.71133404 7.56673118 -22 4 C-14.56387593 1.05823663 -7.99425708 -0.54198353 0 0 Z " fill="#EBF3F8" transform="translate(591,336)"/>
<path d="M0 0 C-2.6900934 11.81079103 -8.00373654 20.54485669 -18.1484375 27.3359375 C-28.59436568 33.43178052 -28.59436568 33.43178052 -33.28515625 32.58984375 C-33.85105469 32.39519531 -34.41695312 32.20054687 -35 32 C-29.80905015 20.17221929 -14.42528896 0 0 0 Z " fill="#F3F7FB" transform="translate(604,254)"/>
<path d="M0 0 C13.59610807 5.10766135 26.37217813 15.98106418 33 29 C33 29.99 33 30.98 33 32 C21.95612994 31.03123947 15.59736834 27.09801864 8 19 C3.44209287 13.01950173 1.19175819 7.38890075 0 0 Z " fill="#F4F8FB" transform="translate(36,254)"/>
<path d="M0 0 C4.455 0.99 4.455 0.99 9 2 C9.33 2.66 9.66 3.32 10 4 C7.36 3.67 4.72 3.34 2 3 C2 62.73 2 122.46 2 184 C1.34 184 0.68 184 0 184 C0 123.28 0 62.56 0 0 Z " fill="#D6E6F1" transform="translate(327,74)"/>
<path d="M0 0 C1.32 0.33 2.64 0.66 4 1 C4 20.14 4 39.28 4 59 C3.01 58.67 2.02 58.34 1 58 C1.66 58 2.32 58 3 58 C2.505 56.515 2.505 56.515 2 55 C-0.01508358 54.26676204 -0.01508358 54.26676204 -2 54 C-1.34 54 -0.68 54 0 54 C0 36.18 0 18.36 0 0 Z " fill="#C7DDEC" transform="translate(462,169)"/>
<path d="M0 0 C2.475 0.495 2.475 0.495 5 1 C4.01 1.66 3.02 2.32 2 3 C1.55036784 5.90652311 1.55036784 5.90652311 1.63923645 9.39065552 C1.63667318 10.05389985 1.6341099 10.71714418 1.63146895 11.40048683 C1.62650912 13.63328309 1.64305922 15.86541009 1.65942383 18.09814453 C1.66026963 19.69447819 1.65979588 21.29081302 1.65809631 22.887146 C1.6572331 27.22996578 1.67491142 31.57253862 1.69581819 35.91530085 C1.71453081 40.45034704 1.71633114 44.98539845 1.71989441 49.52047729 C1.72923084 58.11237915 1.75386617 66.70416693 1.78394288 75.29601848 C1.81743726 85.07579017 1.83396039 94.8555672 1.84902918 104.63538194 C1.88041438 124.75698504 1.93320584 144.87848534 2 165 C1.34 165 0.68 165 0 165 C0 110.55 0 56.1 0 0 Z " fill="#3A87BE" transform="translate(336,86)"/>
<path d="M0 0 C0.99 0 1.98 0 3 0 C3 17.49 3 34.98 3 53 C3.99 52.34 4.98 51.68 6 51 C8.85478326 49.09681116 10.41941308 48.5380901 13.6875 47.875 C14.89986328 47.62363281 14.89986328 47.62363281 16.13671875 47.3671875 C16.75160156 47.24601562 17.36648438 47.12484375 18 47 C15.56230384 50.65654425 14.08684272 50.7489257 10 52 C9.01 52.66 8.02 53.32 7 54 C5.35 54 3.7 54 2 54 C1.67 36.84 1.34 19.68 1 2 C0.67 20.48 0.34 38.96 0 58 C0.66 58.33 1.32 58.66 2 59 C1.01 59 0.02 59 -1 59 C-1.02312851 51.45501767 -1.04091769 43.91003899 -1.05181217 36.36502934 C-1.05703989 32.86191115 -1.0641355 29.35881715 -1.07543945 25.85571289 C-1.08834206 21.83219159 -1.09322912 17.80869586 -1.09765625 13.78515625 C-1.10539818 11.88987938 -1.10539818 11.88987938 -1.11329651 9.95631409 C-1.11337204 8.795186 -1.11344757 7.63405792 -1.11352539 6.43774414 C-1.11685631 4.8955294 -1.11685631 4.8955294 -1.12025452 3.32215881 C-1 1 -1 1 0 0 Z " fill="#CFE1EF" transform="translate(347,178)"/>
<path d="M0 0 C0.33 0 0.66 0 1 0 C1 17.49 1 34.98 1 53 C2.65 53 4.3 53 6 53 C5.67 53.99 5.34 54.98 5 56 C2.03 56.495 2.03 56.495 -1 57 C-1.02312916 49.71578452 -1.04091801 42.4315769 -1.05181217 35.14733219 C-1.05703975 31.76528187 -1.06413511 28.3832566 -1.07543945 25.0012207 C-1.08834267 21.11670223 -1.09322924 17.23219403 -1.09765625 13.34765625 C-1.10281754 12.12788589 -1.10797882 10.90811554 -1.11329651 9.65138245 C-1.11337204 8.53029587 -1.11344757 7.40920929 -1.11352539 6.25415039 C-1.115746 5.26153702 -1.11796661 4.26892365 -1.12025452 3.24623108 C-1 1 -1 1 0 0 Z " fill="#FDFEFE" transform="translate(348,179)"/>
<path d="M0 0 C0.598125 0.20625 1.19625 0.4125 1.8125 0.625 C0.1625 0.955 -1.4875 1.285 -3.1875 1.625 C-3.1875 20.105 -3.1875 38.585 -3.1875 57.625 C-2.5275 57.955 -1.8675 58.285 -1.1875 58.625 C-3.1675 59.12 -3.1675 59.12 -5.1875 59.625 C-5.25693899 52.09735183 -5.31028005 44.56973676 -5.34293652 37.04184151 C-5.35860825 33.54649691 -5.37987331 30.05137104 -5.41381836 26.55615234 C-5.45257941 22.54001742 -5.46719664 18.52411309 -5.48046875 14.5078125 C-5.49595261 13.24945587 -5.51143646 11.99109924 -5.52738953 10.6946106 C-5.52761612 9.53355804 -5.52784271 8.37250549 -5.52807617 7.17626953 C-5.53473801 6.15034698 -5.54139984 5.12442444 -5.54826355 4.06741333 C-5.42921158 3.26141693 -5.31015961 2.45542053 -5.1875 1.625 C-2.1875 -0.375 -2.1875 -0.375 0 0 Z " fill="#BED7E9" transform="translate(365.1875,158.375)"/>
<path d="M0 0 C0.33 0 0.66 0 1 0 C1 17.49 1 34.98 1 53 C-4 53 -4 53 -7 51 C-9.32108669 50.29187186 -11.65377147 49.61975848 -14 49 C-14 48.34 -14 47.68 -14 47 C-12.60190528 47.25890643 -11.20657858 47.53277461 -9.8125 47.8125 C-9.03519531 47.96332031 -8.25789063 48.11414063 -7.45703125 48.26953125 C-5 49 -5 49 0 52 C0 34.84 0 17.68 0 0 Z " fill="#3986BE" transform="translate(468,178)"/>
<path d="M0 0 C-0.66 0.66 -1.32 1.32 -2 2 C-1.01 2.66 -0.02 3.32 1 4 C-3.95 5.485 -3.95 5.485 -9 7 C-9 6.01 -9 5.02 -9 4 C-11.31 4.33 -13.62 4.66 -16 5 C-13.13879225 3.09252817 -10.64745007 1.99646294 -7.4375 0.8125 C-6.46683594 0.44769531 -5.49617187 0.08289063 -4.49609375 -0.29296875 C-2 -1 -2 -1 0 0 Z " fill="#C5DCEB" transform="translate(235,301)"/>
<path d="M0 0 C-1.612328 4.03082 -4.46234596 6.75944137 -7.5 9.75 C-7.99886719 10.25660156 -8.49773438 10.76320313 -9.01171875 11.28515625 C-12.74658861 15 -12.74658861 15 -15 15 C-13.387672 10.96918 -10.53765404 8.24055863 -7.5 5.25 C-7.00113281 4.74339844 -6.50226562 4.23679687 -5.98828125 3.71484375 C-2.25341139 0 -2.25341139 0 0 0 Z " fill="#D5E5F1" transform="translate(590,262)"/>
<path d="M0 0 C4.455 0.99 4.455 0.99 9 2 C9.33 2.66 9.66 3.32 10 4 C7.36 3.67 4.72 3.34 2 3 C1.67 11.25 1.34 19.5 1 28 C0.67 28 0.34 28 0 28 C0 18.76 0 9.52 0 0 Z " fill="#C5DCEB" transform="translate(327,74)"/>
<path d="M0 0 C3.1041127 0.78048811 6.04491721 1.77418788 9 3 C6.11982091 4.44008954 4.20254341 3.28067054 1.2265625 2.49609375 C-2.38561441 1.69127539 -5.29503334 1.62950333 -9 2 C-11.74526713 4.09507228 -13.07880004 6.11820007 -15 9 C-15.33665041 5.97014627 -15.20618506 4.36327844 -13.6875 1.6875 C-9.33706793 -1.04416665 -4.99332737 -0.58389715 0 0 Z " fill="#5095C5" transform="translate(32,237)"/>
<path d="M0 0 C0.99 0 1.98 0 3 0 C3 2.64 3 5.28 3 8 C2.67 7.01 2.34 6.02 2 5 C-0.51083114 6.25541557 -0.87125446 7.50063488 -2 10 C-2.6875 8.375 -2.6875 8.375 -3 6 C-1.5625 2.75 -1.5625 2.75 0 0 Z " fill="#5D9DC7" transform="translate(213,380)"/>
<path d="M0 0 C0.66 0 1.32 0 2 0 C1.67854004 0.55719727 1.35708008 1.11439453 1.02587891 1.68847656 C-0.1218 4.27444132 -0.31095759 6.16617406 -0.4140625 8.984375 C-0.45273438 9.91894531 -0.49140625 10.85351562 -0.53125 11.81640625 C-0.5621875 12.78449219 -0.593125 13.75257813 -0.625 14.75 C-0.66367188 15.73355469 -0.70234375 16.71710938 -0.7421875 17.73046875 C-0.83628426 20.15346037 -0.92192328 22.57644796 -1 25 C-1.33 25 -1.66 25 -2 25 C-2.05786668 21.20839703 -2.09355054 17.41690689 -2.125 13.625 C-2.14175781 12.54476563 -2.15851563 11.46453125 -2.17578125 10.3515625 C-2.18222656 9.3203125 -2.18867187 8.2890625 -2.1953125 7.2265625 C-2.20578613 6.27346191 -2.21625977 5.32036133 -2.22705078 4.33837891 C-2 2 -2 2 0 0 Z " fill="#CBDFEE" transform="translate(89,246)"/>
<path d="M0 0 C0 0.99 0 1.98 0 3 C1.32 3.33 2.64 3.66 4 4 C1.17116253 5.41441874 -0.87376745 5.31900332 -4 5 C-5.875 3 -5.875 3 -7 1 C-4 0 -4 0 0 0 Z " fill="#5598C7" transform="translate(371,215)"/>
<path d="M0 0 C1.2375 0.33 2.475 0.66 3.75 1 C4.08 1.66 4.41 2.32 4.75 3 C3.1721875 2.5978125 3.1721875 2.5978125 1.5625 2.1875 C-2.39583333 1.5625 -2.39583333 1.5625 -5.1875 4.4375 C-5.868125 5.283125 -6.54875 6.12875 -7.25 7 C-7.91 6.67 -8.57 6.34 -9.25 6 C-4.96428571 -0.5625 -4.96428571 -0.5625 0 0 Z " fill="#B6D3E7" transform="translate(523.25,146)"/>
<path d="M0 0 C1.4391134 0.28359887 2.87625518 0.57721399 4.3125 0.875 C5.11300781 1.03742188 5.91351563 1.19984375 6.73828125 1.3671875 C9 2 9 2 12 4 C12 4.66 12 5.32 12 6 C10.37433394 5.52309796 8.74948689 5.04340334 7.125 4.5625 C6.22007812 4.29566406 5.31515625 4.02882812 4.3828125 3.75390625 C2 3 2 3 0 2 C0 1.34 0 0.68 0 0 Z " fill="#82B3D6" transform="translate(454,225)"/>
<path d="M0 0 C-2.3129482 2.3129482 -3.47904875 2.49580975 -6.625 3.125 C-7.44226563 3.29257813 -8.25953125 3.46015625 -9.1015625 3.6328125 C-10.04128906 3.81457031 -10.04128906 3.81457031 -11 4 C-11.33 3.34 -11.66 2.68 -12 2 C-10.56656 1.46809459 -9.12804633 0.94984742 -7.6875 0.4375 C-6.48673828 0.00244141 -6.48673828 0.00244141 -5.26171875 -0.44140625 C-3 -1 -3 -1 0 0 Z " fill="#7FB1D4" transform="translate(365,226)"/>
<path d="M0 0 C0.66 0 1.32 0 2 0 C1.5359375 0.7734375 1.5359375 0.7734375 1.0625 1.5625 C-0.29059287 4.66665423 -0.61359424 7.65115007 -1 11 C-1.66 10.34 -2.32 9.68 -3 9 C-2.53846154 2.53846154 -2.53846154 2.53846154 0 0 Z " fill="#418CC0" transform="translate(61,397)"/>
<path d="M0 0 C-1.44077046 3.36179774 -3.24750021 5.59156268 -6 8 C-6.66 8 -7.32 8 -8 8 C-6.48291727 4.46014029 -4.24676932 0 0 0 Z " fill="#DAE9F3" transform="translate(92,195)"/>
<path d="M0 0 C1.98738098 0.01761863 3.97253109 0.16698176 5.953125 0.33203125 C5.953125 0.66203125 5.953125 0.99203125 5.953125 1.33203125 C4.3134375 1.73421875 4.3134375 1.73421875 2.640625 2.14453125 C-0.66380163 3.20866864 -1.99647922 3.67857789 -4.046875 6.33203125 C-4.706875 6.00203125 -5.366875 5.67203125 -6.046875 5.33203125 C-3.15469741 0.51173527 -3.15469741 0.51173527 0 0 Z " fill="#3E8ABF" transform="translate(99.046875,169.66796875)"/>
<path d="M0 0 C-1.15173355 2.46800047 -2.04783565 4.04783565 -4 6 C-4.69748583 7.31747324 -5.36959957 8.64914193 -6 10 C-6.33663062 6.29706315 -6.47736015 4.60465619 -4.125 1.625 C-2 0 -2 0 0 0 Z " fill="#3182BB" transform="translate(387,478)"/>
<path d="M0 0 C0.66 0.33 1.32 0.66 2 1 C0.68 2.32 -0.64 3.64 -2 5 C-1.67 5.66 -1.34 6.32 -1 7 C-2.98 7 -4.96 7 -7 7 C-4.66666667 4.66666667 -2.33333333 2.33333333 0 0 Z " fill="#B5D2E7" transform="translate(471,441)"/>
<path d="M0 0 C-1.7578125 0.9765625 -3.515625 1.953125 -5.2734375 2.9296875 C-7.1612614 4.00897274 -7.1612614 4.00897274 -9 6 C-9.33 4.68 -9.66 3.36 -10 2 C-8.71211992 1.46987262 -7.41953322 0.9511671 -6.125 0.4375 C-5.40570313 0.14746094 -4.68640625 -0.14257812 -3.9453125 -0.44140625 C-2 -1 -2 -1 0 0 Z " fill="#5799C7" transform="translate(158,141)"/>
<path d="M0 0 C0.33 0 0.66 0 1 0 C1 3.3 1 6.6 1 10 C0.01 10 -0.98 10 -2 10 C-2 8.35 -2 6.7 -2 5 C-1.67 5 -1.34 5 -1 5 C-0.67 3.35 -0.34 1.7 0 0 Z " fill="#64A1C9" transform="translate(272,318)"/>
<path d="M0 0 C-0.66 1.32 -1.32 2.64 -2 4 C-2.66 4 -3.32 4 -4 4 C-4 6.31 -4 8.62 -4 11 C-4.33 11 -4.66 11 -5 11 C-5.36717663 3.5340751 -5.36717663 3.5340751 -3.625 1 C-2 0 -2 0 0 0 Z " fill="#408BC0" transform="translate(89,103)"/>
<path d="M0 0 C0.33 1.32 0.66 2.64 1 4 C-1.91517292 2.92598892 -3.77810176 2.22189824 -6 0 C-3.50907189 -1.24546405 -2.58919267 -0.7767578 0 0 Z " fill="#CADFED" transform="translate(219,411)"/>
</svg>
